<?xml version="1.0" standalone="no"?><!DOCTYPE svg PUBLIC "-//W3C//DTD SVG 1.1//EN" "http://www.w3.org/Graphics/SVG/1.1/DTD/svg11.dtd"><svg t="1742884315721" class="icon" viewBox="0 0 1024 1024" version="1.1" xmlns="http://www.w3.org/2000/svg" p-id="9631" xmlns:xlink="http://www.w3.org/1999/xlink" width="64" height="64"><path d="M896 341.333333v-128c0-46.933333-38.4-85.333333-85.333333-85.333333h-128v21.333333H341.333333V128h-128c-46.933333 0-85.333333 38.4-85.333333 85.333333v128h21.333333v341.333334H128v128c0 46.933333 38.4 85.333333 85.333333 85.333333h128v-21.333333h341.333334v21.333333h128c46.933333 0 85.333333-38.4 85.333333-85.333333v-128h-21.333333V341.333333h21.333333z m-64 341.333334h-21.333333v85.333333c0 23.466667-19.2 42.666667-42.666667 42.666667h-85.333333v21.333333H341.333333v-21.333333h-85.333333c-23.466667 0-42.666667-19.2-42.666667-42.666667v-85.333333H192V341.333333h21.333333v-85.333333c0-23.466667 19.2-42.666667 42.666667-42.666667h85.333333V192h341.333334v21.333333h85.333333c23.466667 0 42.666667 19.2 42.666667 42.666667v85.333333h21.333333v341.333334z" fill="#f4ea2a" p-id="9632"></path></svg>